<svg width="63" height="20" viewBox="0 0 63 20" fill="none" xmlns="http://www.w3.org/2000/svg">
<path d="M52.9881 1.30446L54.1361 0.374023C55.0135 1.76967 55.8908 3.01025 56.7681 4.09575C57.6455 5.16187 58.5601 6.15046 59.5121 7.06151C60.4828 7.97256 61.5375 8.84484 62.6761 9.67835V9.82373C61.5375 10.6766 60.4828 11.5586 59.5121 12.4696C58.5601 13.3613 57.6455 14.3499 56.7681 15.4354C55.9095 16.5209 55.0321 17.7518 54.1361 19.1281L52.9881 18.1976C53.7161 17.0927 54.4628 16.0751 55.2281 15.1446C55.9935 14.2142 56.7588 13.3807 57.5241 12.6441C58.2895 11.8881 59.0361 11.2485 59.7641 10.7251C60.4921 10.1823 61.2015 9.76558 61.8921 9.47482V10.0273C61.2015 9.7365 60.4921 9.32944 59.7641 8.80607C59.0361 8.26332 58.2895 7.62364 57.5241 6.88705C56.7588 6.13107 55.9935 5.28787 55.2281 4.35744C54.4628 3.42701 53.7161 2.40934 52.9881 1.30446ZM0 9.03868L56.2921 9.03868C57.1135 9.03868 57.9068 9.05806 58.6721 9.09683C59.4561 9.11621 60.1468 9.15498 60.7441 9.21313L61.7241 9.76558L60.7441 10.2889C60.1468 10.3471 59.4561 10.3956 58.6721 10.4343C57.9068 10.4731 57.1135 10.4925 56.2921 10.4925L0 10.4925L0 9.03868Z" fill="#D6001C"/>
</svg>
