<svg width="22" height="22" viewBox="0 0 22 22" fill="none" xmlns="http://www.w3.org/2000/svg">
<g clip-path="url(#clip0_0_644)">
<path d="M17.9929 5.12592C17.9929 5.85433 17.4185 6.44495 16.71 6.44495C16.0016 6.44495 15.4272 5.85433 15.4272 5.12592C15.4272 4.39734 16.0016 3.80688 16.71 3.80688C17.4185 3.80688 17.9929 4.39734 17.9929 5.12592Z" fill="white"/>
<path d="M21.6322 6.46806C21.5821 5.29912 21.3984 4.49548 21.1351 3.79911C20.8635 3.05994 20.4457 2.39816 19.8982 1.84802C19.3634 1.28931 18.7157 0.855178 18.0054 0.580191C17.3245 0.309402 16.5473 0.12037 15.4108 0.0688306C14.2658 0.0129267 13.9023 0 10.9984 0C8.09446 0 7.73098 0.0129267 6.59026 0.0644657C5.45379 0.116005 4.67248 0.305205 3.99562 0.575827C3.27682 0.855178 2.63342 1.28495 2.09856 1.84802C1.55538 2.39816 1.13347 3.0643 0.865954 3.79492C0.602687 4.49548 0.418906 5.29475 0.368798 6.4637C0.314448 7.64137 0.30188 8.01524 0.30188 11.0021C0.30188 13.9891 0.314448 14.3629 0.364555 15.5362C0.414662 16.7052 0.598606 17.5088 0.861874 18.2052C1.13347 18.9444 1.55538 19.6061 2.09856 20.1563C2.63342 20.715 3.28106 21.1491 3.99138 21.4241C4.67248 21.6949 5.44955 21.8839 6.58618 21.9355C7.72674 21.9872 8.09038 21.9999 10.9943 21.9999C13.8983 21.9999 14.2617 21.9872 15.4025 21.9355C16.5389 21.8839 17.3202 21.6949 17.9971 21.4241C19.4345 20.8525 20.571 19.6835 21.1268 18.2052C21.3899 17.5046 21.5738 16.7052 21.6239 15.5362C21.674 14.3629 21.6866 13.9891 21.6866 11.0021C21.6866 8.01524 21.6824 7.64137 21.6322 6.46806ZM19.7061 15.4503C19.6601 16.5247 19.4846 17.1049 19.3384 17.4917C18.979 18.4501 18.2395 19.2108 17.3077 19.5805C16.9316 19.7309 16.3635 19.9113 15.323 19.9585C14.1948 20.0102 13.8565 20.023 11.0026 20.023C8.14881 20.023 7.80622 20.0102 6.68215 19.9585C5.63757 19.9113 5.0735 19.7309 4.69745 19.5805C4.23375 19.4042 3.81168 19.1248 3.46909 18.7595C3.11393 18.4028 2.84234 17.973 2.67096 17.4961C2.52472 17.1093 2.34926 16.5247 2.3034 15.4546C2.25313 14.2943 2.24072 13.9461 2.24072 11.0107C2.24072 8.07534 2.25313 7.72296 2.3034 6.56694C2.34926 5.49251 2.52472 4.91232 2.67096 4.52553C2.84234 4.04841 3.11393 3.61445 3.47333 3.2619C3.82 2.89659 4.23783 2.61724 4.70169 2.44114C5.07774 2.29072 5.64606 2.11025 6.6864 2.0629C7.81455 2.01136 8.15306 1.99844 11.0067 1.99844C13.8648 1.99844 14.2031 2.01136 15.3272 2.0629C16.3718 2.11025 16.9359 2.29072 17.3119 2.44114C17.7756 2.61724 18.1977 2.89659 18.5403 3.2619C18.8954 3.61864 19.167 4.04841 19.3384 4.52553C19.4846 4.91232 19.6601 5.49671 19.7061 6.56694C19.7562 7.72732 19.7688 8.07534 19.7688 11.0107C19.7688 13.9461 19.7562 14.2899 19.7061 15.4503Z" fill="white"/>
<path d="M10.9977 5.34937C7.96431 5.34937 5.50317 7.88065 5.50317 11.0009C5.50317 14.1211 7.96431 16.6524 10.9977 16.6524C14.0312 16.6524 16.4922 14.1211 16.4922 11.0009C16.4922 7.88065 14.0312 5.34937 10.9977 5.34937ZM10.9977 14.6668C9.02979 14.6668 7.43353 13.0251 7.43353 11.0009C7.43353 8.97657 9.02979 7.33488 10.9977 7.33488C12.9657 7.33488 14.5618 8.97657 14.5618 11.0009C14.5618 13.0251 12.9657 14.6668 10.9977 14.6668Z" fill="white"/>
</g>
<defs>
<clipPath id="clip0_0_644">
<rect width="21.3889" height="22" fill="white" transform="translate(0.263672)"/>
</clipPath>
</defs>
</svg>
