<svg width="20" height="16" viewBox="0 0 20 16" fill="none" xmlns="http://www.w3.org/2000/svg">
<path d="M16.7967 4.59925L11.1978 7.62026C10.4735 8.01431 9.55432 8.01431 8.80223 7.62026L3.20334 4.59925C2.78552 4.38909 2.64624 3.8637 2.86908 3.46965C2.9805 3.28576 3.17549 3.12815 3.39833 3.07561C3.62117 3.02307 3.87187 3.04934 4.06685 3.15441L9.66574 6.17543C9.86072 6.28051 10.1114 6.28051 10.3343 6.17543L15.961 3.18068C16.156 3.07561 16.4067 3.04934 16.6295 3.10188C16.8524 3.15442 17.0474 3.28576 17.1588 3.49592C17.3816 3.88997 17.2145 4.38909 16.7967 4.59925ZM18.273 0.0283203H1.72702C0.779944 0.0283203 0 0.763872 0 1.65704V13.3996C0 13.8462 0.194986 14.2402 0.501393 14.5555C0.835655 14.8707 1.28134 15.0283 1.72702 15.0283H18.273C18.7465 15.0283 19.1643 14.8444 19.4986 14.5555C19.8329 14.2402 20 13.8199 20 13.3996V1.65704C20 1.21046 19.805 0.816411 19.4986 0.501175C19.1922 0.185939 18.7465 0.0283203 18.273 0.0283203Z" fill="white"/>
</svg>
