<svg width="18" height="19" viewBox="0 0 18 19" fill="none" xmlns="http://www.w3.org/2000/svg">
<path fill-rule="evenodd" clip-rule="evenodd" d="M4.76427 6.71793L5.89565 6.17853C6.39849 5.92681 6.59603 5.3874 6.4344 4.88396L4.96181 0.7845C4.85406 0.442879 4.56673 0.191158 4.17164 0.0832771C2.87864 -0.114504 1.83705 0.227118 0.993007 1.01824C0.310588 1.66552 -0.0485796 2.51059 0.00529558 3.44555C0.40038 10.0982 7.97882 17.6139 14.5516 18.0094C15.4854 18.1173 16.3295 17.7577 17.0299 17.0745C17.82 16.2294 18.1612 15.1865 17.9278 13.856C17.8739 13.5144 17.6225 13.2087 17.2274 13.0649L13.1149 11.6265C12.6121 11.4287 12.0733 11.6804 11.8219 12.1659L11.3191 13.2627C8.32003 12.1659 5.89565 9.70262 4.76427 6.71793Z" fill="white"/>
</svg>
