<svg width="21" height="22" viewBox="0 0 21 22" fill="none" xmlns="http://www.w3.org/2000/svg">
<g clip-path="url(#clip0_0_648)">
<path d="M20.9155 4.17692C20.162 4.53579 19.359 4.77367 18.5219 4.88917C19.3831 4.33092 20.0404 3.45367 20.3494 2.39629C19.5465 2.91604 18.66 3.28317 17.7152 3.48804C16.9528 2.60667 15.8662 2.06079 14.6808 2.06079C12.3809 2.06079 10.5294 4.08754 10.5294 6.57217C10.5294 6.92967 10.5572 7.27341 10.6256 7.60066C7.17202 7.41779 4.11608 5.62067 2.06317 2.88304C1.70476 3.55817 1.49453 4.33092 1.49453 5.16279C1.49453 6.72479 2.2354 8.10941 3.33975 8.91104C2.67233 8.89729 2.01757 8.68691 1.46287 8.35554C1.46287 8.36929 1.46287 8.38716 1.46287 8.40504C1.46287 10.5968 2.90282 12.4173 4.79109 12.8367C4.45295 12.937 4.08442 12.9852 3.70195 12.9852C3.436 12.9852 3.16751 12.9687 2.91549 12.9082C3.45373 14.6943 4.98106 16.0074 6.79715 16.05C5.38379 17.2504 3.58924 17.9737 1.64651 17.9737C1.30583 17.9737 0.979087 17.9572 0.652344 17.9118C2.49249 19.2002 4.67331 19.9358 7.02511 19.9358C14.6694 19.9358 18.8487 13.0608 18.8487 7.10154C18.8487 6.90217 18.8423 6.70967 18.8335 6.51854C19.6579 5.88329 20.3507 5.08992 20.9155 4.17692Z" fill="white"/>
</g>
<defs>
<clipPath id="clip0_0_648">
<rect width="20.2632" height="22" fill="white" transform="translate(0.652344)"/>
</clipPath>
</defs>
</svg>
